<svg width="26" height="25" viewBox="0 0 26 25" fill="none" xmlns="http://www.w3.org/2000/svg">
<path d="M12.5863 17.9618L8.7284 20.8948C8.53724 21.0506 8.32871 21.1243 8.10279 21.116C7.87688 21.1077 7.67703 21.0426 7.50325 20.9208C7.32947 20.7996 7.19497 20.6353 7.09974 20.4276C7.0045 20.22 6.99999 19.995 7.08618 19.7527L8.572 14.9508L4.79229 12.2773C4.58375 12.1389 4.45342 11.9572 4.40128 11.7323C4.34915 11.5073 4.35784 11.2996 4.42735 11.1093C4.49686 10.919 4.61851 10.7501 4.79229 10.6026C4.96607 10.4552 5.1746 10.3818 5.41789 10.3825H10.0839L11.5958 5.39892C11.6827 5.15666 11.8175 4.97047 12.0003 4.84034C12.1831 4.71021 12.3785 4.64549 12.5863 4.64618C12.7948 4.64618 12.9905 4.71125 13.1733 4.84138C13.3562 4.9715 13.4907 5.15735 13.5769 5.39892L15.0887 10.3825H19.7547C19.998 10.3825 20.2066 10.4562 20.3803 10.6037C20.5541 10.7511 20.6758 10.9196 20.7453 11.1093C20.8148 11.2996 20.8235 11.5073 20.7713 11.7323C20.7192 11.9572 20.5889 12.1389 20.3803 12.2773L16.6006 14.9508L18.0864 19.7527C18.1733 19.995 18.1692 20.22 18.0739 20.4276C17.9787 20.6353 17.8438 20.7996 17.6694 20.9208C17.4956 21.0419 17.2957 21.107 17.0698 21.116C16.8439 21.125 16.6354 21.0512 16.4442 20.8948L12.5863 17.9618Z" fill="white"/>
</svg>
